<svg id="visual" viewBox="0 0 1000 2000" width="1000" height="2000" xmlns="http://www.w3.org/2000/svg" xmlns:xlink="http://www.w3.org/1999/xlink" version="1.1"><rect x="0" y="0" width="1000" height="2000" fill="#e4e2e9"></rect><path d="M0 106L33.3 118.2C66.7 130.3 133.3 154.7 200 315.3C266.7 476 333.3 773 400 752.7C466.7 732.3 533.3 394.7 600 324.5C666.7 254.3 733.3 451.7 800 464.7C866.7 477.7 933.3 306.3 966.7 220.7L1000 135L1000 2001L966.7 2001C933.3 2001 866.7 2001 800 2001C733.3 2001 666.7 2001 600 2001C533.3 2001 466.7 2001 400 2001C333.3 2001 266.7 2001 200 2001C133.3 2001 66.7 2001 33.3 2001L0 2001Z" fill="#888859"></path><path d="M0 841L33.3 825.3C66.7 809.7 133.3 778.3 200 724.7C266.7 671 333.3 595 400 554.8C466.7 514.7 533.3 510.3 600 552.8C666.7 595.3 733.3 684.7 800 811.8C866.7 939 933.3 1104 966.7 1186.5L1000 1269L1000 2001L966.7 2001C933.3 2001 866.7 2001 800 2001C733.3 2001 666.7 2001 600 2001C533.3 2001 466.7 2001 400 2001C333.3 2001 266.7 2001 200 2001C133.3 2001 66.7 2001 33.3 2001L0 2001Z" fill="#7c7f53"></path><path d="M0 945L33.3 963C66.7 981 133.3 1017 200 1080.7C266.7 1144.3 333.3 1235.7 400 1265.7C466.7 1295.7 533.3 1264.3 600 1139.5C666.7 1014.7 733.3 796.3 800 678C866.7 559.7 933.3 541.3 966.7 532.2L1000 523L1000 2001L966.7 2001C933.3 2001 866.7 2001 800 2001C733.3 2001 666.7 2001 600 2001C533.3 2001 466.7 2001 400 2001C333.3 2001 266.7 2001 200 2001C133.3 2001 66.7 2001 33.3 2001L0 2001Z" fill="#71764d"></path><path d="M0 1533L33.3 1439.2C66.7 1345.3 133.3 1157.7 200 1146.7C266.7 1135.7 333.3 1301.3 400 1337.2C466.7 1373 533.3 1279 600 1274.3C666.7 1269.7 733.3 1354.3 800 1389.8C866.7 1425.3 933.3 1411.7 966.7 1404.8L1000 1398L1000 2001L966.7 2001C933.3 2001 866.7 2001 800 2001C733.3 2001 666.7 2001 600 2001C533.3 2001 466.7 2001 400 2001C333.3 2001 266.7 2001 200 2001C133.3 2001 66.7 2001 33.3 2001L0 2001Z" fill="#656d47"></path><path d="M0 1378L33.3 1395C66.7 1412 133.3 1446 200 1479.2C266.7 1512.3 333.3 1544.7 400 1499.2C466.7 1453.7 533.3 1330.3 600 1312.3C666.7 1294.3 733.3 1381.7 800 1400.3C866.7 1419 933.3 1369 966.7 1344L1000 1319L1000 2001L966.7 2001C933.3 2001 866.7 2001 800 2001C733.3 2001 666.7 2001 600 2001C533.3 2001 466.7 2001 400 2001C333.3 2001 266.7 2001 200 2001C133.3 2001 66.7 2001 33.3 2001L0 2001Z" fill="#5b6541"></path><path d="M0 1240L33.3 1234.3C66.7 1228.7 133.3 1217.3 200 1292.5C266.7 1367.7 333.3 1529.3 400 1596.5C466.7 1663.7 533.3 1636.3 600 1604.5C666.7 1572.7 733.3 1536.3 800 1534.3C866.7 1532.3 933.3 1564.7 966.7 1580.8L1000 1597L1000 2001L966.7 2001C933.3 2001 866.7 2001 800 2001C733.3 2001 666.7 2001 600 2001C533.3 2001 466.7 2001 400 2001C333.3 2001 266.7 2001 200 2001C133.3 2001 66.7 2001 33.3 2001L0 2001Z" fill="#505c3b"></path><path d="M0 1572L33.3 1545.3C66.7 1518.7 133.3 1465.3 200 1449.7C266.7 1434 333.3 1456 400 1515.7C466.7 1575.3 533.3 1672.7 600 1680.3C666.7 1688 733.3 1606 800 1579.8C866.7 1553.7 933.3 1583.3 966.7 1598.2L1000 1613L1000 2001L966.7 2001C933.3 2001 866.7 2001 800 2001C733.3 2001 666.7 2001 600 2001C533.3 2001 466.7 2001 400 2001C333.3 2001 266.7 2001 200 2001C133.3 2001 66.7 2001 33.3 2001L0 2001Z" fill="#465336"></path><path d="M0 1767L33.3 1776.5C66.7 1786 133.3 1805 200 1843.5C266.7 1882 333.3 1940 400 1933.5C466.7 1927 533.3 1856 600 1789.2C666.7 1722.3 733.3 1659.7 800 1647C866.7 1634.3 933.3 1671.7 966.7 1690.3L1000 1709L1000 2001L966.7 2001C933.3 2001 866.7 2001 800 2001C733.3 2001 666.7 2001 600 2001C533.3 2001 466.7 2001 400 2001C333.3 2001 266.7 2001 200 2001C133.3 2001 66.7 2001 33.3 2001L0 2001Z" fill="#3d4a30"></path></svg>