<svg id="visual" viewBox="0 0 1500 4000" width="1500" height="4000" xmlns="http://www.w3.org/2000/svg" xmlns:xlink="http://www.w3.org/1999/xlink" version="1.1"><rect x="0" y="0" width="1500" height="4000" fill="#e4e2e9"></rect><path d="M0 987L50 1184.3C100 1381.7 200 1776.3 300 1786.2C400 1796 500 1421 600 1440.7C700 1460.3 800 1874.7 900 1919.7C1000 1964.7 1100 1640.3 1200 1628.8C1300 1617.3 1400 1918.7 1450 2069.3L1500 2220L1500 4001L1450 4001C1400 4001 1300 4001 1200 4001C1100 4001 1000 4001 900 4001C800 4001 700 4001 600 4001C500 4001 400 4001 300 4001C200 4001 100 4001 50 4001L0 4001Z" fill="#888859"></path><path d="M0 1809L50 1921.5C100 2034 200 2259 300 2227C400 2195 500 1906 600 1817.2C700 1728.3 800 1839.7 900 1800.5C1000 1761.3 1100 1571.7 1200 1517.8C1300 1464 1400 1546 1450 1587L1500 1628L1500 4001L1450 4001C1400 4001 1300 4001 1200 4001C1100 4001 1000 4001 900 4001C800 4001 700 4001 600 4001C500 4001 400 4001 300 4001C200 4001 100 4001 50 4001L0 4001Z" fill="#7c7f53"></path><path d="M0 1613L50 1616.5C100 1620 200 1627 300 1746.3C400 1865.7 500 2097.3 600 2116.5C700 2135.7 800 1942.3 900 1871.5C1000 1800.7 1100 1852.3 1200 1958.2C1300 2064 1400 2224 1450 2304L1500 2384L1500 4001L1450 4001C1400 4001 1300 4001 1200 4001C1100 4001 1000 4001 900 4001C800 4001 700 4001 600 4001C500 4001 400 4001 300 4001C200 4001 100 4001 50 4001L0 4001Z" fill="#71764d"></path><path d="M0 2696L50 2662.7C100 2629.3 200 2562.7 300 2522.8C400 2483 500 2470 600 2486.3C700 2502.7 800 2548.3 900 2579.3C1000 2610.3 1100 2626.7 1200 2593.7C1300 2560.7 1400 2478.3 1450 2437.2L1500 2396L1500 4001L1450 4001C1400 4001 1300 4001 1200 4001C1100 4001 1000 4001 900 4001C800 4001 700 4001 600 4001C500 4001 400 4001 300 4001C200 4001 100 4001 50 4001L0 4001Z" fill="#656d47"></path><path d="M0 3001L50 2891.7C100 2782.3 200 2563.7 300 2544.8C400 2526 500 2707 600 2729.2C700 2751.3 800 2614.7 900 2611.2C1000 2607.7 1100 2737.3 1200 2741.3C1300 2745.3 1400 2623.7 1450 2562.8L1500 2502L1500 4001L1450 4001C1400 4001 1300 4001 1200 4001C1100 4001 1000 4001 900 4001C800 4001 700 4001 600 4001C500 4001 400 4001 300 4001C200 4001 100 4001 50 4001L0 4001Z" fill="#5b6541"></path><path d="M0 2624L50 2666C100 2708 200 2792 300 2847.5C400 2903 500 2930 600 2902.8C700 2875.7 800 2794.3 900 2831.3C1000 2868.3 1100 3023.7 1200 3005.5C1300 2987.3 1400 2795.7 1450 2699.8L1500 2604L1500 4001L1450 4001C1400 4001 1300 4001 1200 4001C1100 4001 1000 4001 900 4001C800 4001 700 4001 600 4001C500 4001 400 4001 300 4001C200 4001 100 4001 50 4001L0 4001Z" fill="#505c3b"></path><path d="M0 2990L50 3040.2C100 3090.3 200 3190.7 300 3247.5C400 3304.3 500 3317.7 600 3287.7C700 3257.7 800 3184.3 900 3132.2C1000 3080 1100 3049 1200 3025.7C1300 3002.3 1400 2986.7 1450 2978.8L1500 2971L1500 4001L1450 4001C1400 4001 1300 4001 1200 4001C1100 4001 1000 4001 900 4001C800 4001 700 4001 600 4001C500 4001 400 4001 300 4001C200 4001 100 4001 50 4001L0 4001Z" fill="#465336"></path><path d="M0 3677L50 3632.7C100 3588.3 200 3499.7 300 3492.8C400 3486 500 3561 600 3567.5C700 3574 800 3512 900 3473.7C1000 3435.3 1100 3420.7 1200 3428C1300 3435.3 1400 3464.7 1450 3479.3L1500 3494L1500 4001L1450 4001C1400 4001 1300 4001 1200 4001C1100 4001 1000 4001 900 4001C800 4001 700 4001 600 4001C500 4001 400 4001 300 4001C200 4001 100 4001 50 4001L0 4001Z" fill="#3d4a30"></path></svg>